# File created by Blade
# Date/Time:  Wed Jan 21 16:02:01 2015
# Frame Rate: 120.000 fps
#------------------------------------------------------
:FULLY-SPECIFIED
:DEGREES
431
root 18.665801 32.589740 -17.563261 -172.956938 4.607847 -175.254306
Spine -17.366763 2.218722 21.506267
Head 14.044799 7.512711 -12.058580
LeftShoulder -19.293846 -31.168281 16.666705
LeftArm 5.687552 12.145946 -4.655140
LeftForeArm 16.800659 -0.000000 8.669705
LeftHand -8.735856 -0.000000 -31.958449
LeftHandThumb1 -26.253704 0.000000 33.147579
RightShoulder -13.416373 -17.253181 3.318975
RightArm 7.194737 -7.485260 67.275837
RightForeArm -27.641993 -0.000000 23.147565
RightHand 3.457578 -0.000000 13.099533
RightHandThumb1 -24.326973 -0.000000 -32.862282
LeftUpLeg 13.259649 2.796937 -16.587668
LeftLeg -1.822502 -0.000000 0.000000
LeftFoot -36.123064 21.606008 -15.006147
LeftToeBase 20.981958 -0.000000 -0.000000
RightUpLeg -17.912182 12.879819 23.203761
RightLeg -2.412137 -0.000000 0.000000
RightFoot -1.447332 -34.067874 -3.397327
RightToeBase 17.711679 -0.000000 -0.000000
432
root 18.656791 32.592205 -17.563377 -172.985667 4.555203 -175.225558
Spine -17.422353 2.189325 21.508820
Head 14.088778 7.445349 -11.932891
LeftShoulder -19.015804 -31.963257 17.620580
LeftArm 6.489714 12.212790 -3.577695
LeftForeArm 17.187151 -0.000000 7.943672
LeftHand -8.683448 0.000000 -31.882335
LeftHandThumb1 -26.253704 0.000000 33.147579
RightShoulder -13.450639 -17.272573 3.395567
RightArm 7.137275 -7.375601 67.188525
RightForeArm -27.573052 -0.000000 23.134799
RightHand 3.461710 -0.000000 13.111553
RightHandThumb1 -24.326973 -0.000000 -32.862282
LeftUpLeg 13.298183 2.756087 -16.568845
LeftLeg -1.828429 -0.000000 0.000000
LeftFoot -36.093976 21.613561 -15.018018
LeftToeBase 20.873069 -0.000000 -0.000000
RightUpLeg -17.887723 12.813672 23.228132
RightLeg -2.431776 -0.000000 0.000000
RightFoot -1.423555 -34.056495 -3.409832
RightToeBase 17.685355 -0.000000 -0.000000
433
root 18.647788 32.595465 -17.561717 -173.025935 4.494034 -175.193194
Spine -17.458644 2.134399 21.526167
Head 14.143256 7.453933 -11.796664
LeftShoulder -18.755008 -32.695869 18.621353
LeftArm 7.256864 11.956621 -2.669016
LeftForeArm 17.637086 -0.000000 7.217680
LeftHand -8.710463 0.000000 -31.964286
LeftHandThumb1 -26.253704 0.000000 33.147579
RightShoulder -13.482681 -17.328896 3.474341
RightArm 7.150099 -7.278153 67.092209
RightForeArm -27.513120 -0.000000 23.077963
RightHand 3.513037 -0.000000 13.068639
RightHandThumb1 -24.326973 -0.000000 -32.862282
LeftUpLeg 13.329433 2.713702 -16.539898
LeftLeg -1.798200 -0.000000 0.000000
LeftFoot -36.057517 21.598582 -15.000821
LeftToeBase 20.772916 -0.000000 -0.000000
RightUpLeg -17.858993 12.757614 23.250051
RightLeg -2.449806 -0.000000 0.000000
RightFoot -1.418153 -34.076856 -3.384676
RightToeBase 17.660068 -0.000000 -0.000000
434
root 18.638670 32.598621 -17.560116 -173.063677 4.423381 -175.160218
Spine -17.498494 2.115117 21.526152
Head 14.179215 7.385159 -11.660252
LeftShoulder -18.448207 -33.516677 19.563278
LeftArm 8.081888 11.785733 -1.728851
LeftForeArm 18.029494 -0.000000 6.449033
LeftHand -8.711380 -0.000000 -31.882962
LeftHandThumb1 -26.253704 0.000000 33.147579
RightShoulder -13.547448 -17.337674 3.564931
RightArm 7.111414 -7.172285 67.000138
RightForeArm -27.431974 0.000000 23.016351
RightHand 3.597125 0.000000 13.027389
RightHandThumb1 -24.326973 -0.000000 -32.862282
LeftUpLeg 13.370575 2.662537 -16.514096
LeftLeg -1.795441 -0.000000 0.000000
LeftFoot -36.052983 21.635868 -15.009575
LeftToeBase 20.872902 -0.000000 -0.000000
RightUpLeg -17.835833 12.694995 23.271731
RightLeg -2.466602 -0.000000 0.000000
RightFoot -1.398503 -34.079672 -3.358377
RightToeBase 17.583837 -0.000000 -0.000000
435
root 18.629137 32.602090 -17.558407 -173.098878 4.361279 -175.135999
Spine -17.541716 2.065198 21.527763
Head 14.218558 7.372997 -11.528310
LeftShoulder -18.206139 -34.287593 20.536480
LeftArm 8.912365 11.460804 -0.869316
LeftForeArm 18.461480 -0.000000 5.726111
LeftHand -8.762913 -0.000000 -31.868569
LeftHandThumb1 -26.253704 0.000000 33.147579
RightShoulder -13.612842 -17.292412 3.642231
RightArm 7.058531 -7.074694 66.918852
RightForeArm -27.412066 -0.000000 22.932356
RightHand 3.670611 0.000000 13.029475
RightHandThumb1 -24.326973 -0.000000 -32.862282
LeftUpLeg 13.410656 2.653239 -16.488612
LeftLeg -1.796582 -0.000000 0.000000
LeftFoot -36.023790 21.588622 -15.041042
LeftToeBase 20.836256 -0.000000 -0.000000
RightUpLeg -17.811880 12.644836 23.280402
RightLeg -2.492292 -0.000000 0.000000
RightFoot -1.411159 -34.095087 -3.285620
RightToeBase 17.636011 -0.000000 -0.000000
436
root 18.619725 32.605690 -17.557760 -173.135145 4.300448 -175.120529
Spine -17.585427 1.993041 21.534671
Head 14.256527 7.428138 -11.449754
LeftShoulder -18.014803 -35.120438 21.507053
LeftArm 9.764563 11.043350 -0.034649
LeftForeArm 18.898349 -0.000000 5.046947
LeftHand -8.760709 0.000000 -31.913936
LeftHandThumb1 -26.253704 0.000000 33.147579
RightShoulder -13.668533 -17.259237 3.713791
RightArm 7.005028 -6.964883 66.845384
RightForeArm -27.380706 -0.000000 22.877474
RightHand 3.689263 -0.000000 13.058205
RightHandThumb1 -24.326973 -0.000000 -32.862282
LeftUpLeg 13.443042 2.670746 -16.461575
LeftLeg -1.778483 -0.000000 0.000000
LeftFoot -35.991443 21.518334 -15.048745
LeftToeBase 20.793973 -0.000000 -0.000000
RightUpLeg -17.787812 12.620625 23.271936
RightLeg -2.513124 -0.000000 0.000000
RightFoot -1.391339 -34.127595 -3.282106
RightToeBase 17.671571 -0.000000 -0.000000
437
root 18.611665 32.609686 -17.555897 -173.175626 4.226063 -175.089689
Spine -17.624646 1.913004 21.554468
Head 14.299469 7.452617 -11.374288
LeftShoulder -17.795309 -35.907894 22.461126
LeftArm 10.549546 10.428902 0.701603
LeftForeArm 19.563128 -0.000000 4.476049
LeftHand -8.807609 -0.000000 -31.831285
LeftHandThumb1 -26.253704 0.000000 33.147579
RightShoulder -13.716093 -17.249461 3.799142
RightArm 6.971505 -6.818729 66.763693
RightForeArm -27.341506 -0.000000 22.827608
RightHand 3.689381 -0.000000 13.096800
RightHandThumb1 -24.326973 -0.000000 -32.862282
LeftUpLeg 13.484130 2.692970 -16.414160
LeftLeg -1.769116 -0.000000 0.000000
LeftFoot -35.953798 21.449452 -15.034408
LeftToeBase 20.761570 -0.000000 -0.000000
RightUpLeg -17.765666 12.587513 23.279537
RightLeg -2.529664 -0.000000 0.000000
RightFoot -1.411825 -34.183566 -3.198007
RightToeBase 17.634025 -0.000000 -0.000000
438
root 18.602640 32.613826 -17.552766 -173.207291 4.153794 -175.074271
Spine -17.668915 1.833574 21.561330
Head 14.344118 7.525405 -11.300114
LeftShoulder -17.606508 -36.698002 23.418501
LeftArm 11.329910 9.847394 1.375825
LeftForeArm 20.102972 0.000000 3.986802
LeftHand -8.887236 -0.000000 -31.699066
LeftHandThumb1 -26.253704 0.000000 33.147579
RightShoulder -13.815325 -17.225168 3.898155
RightArm 6.981083 -6.693661 66.680055
RightForeArm -27.347423 0.000000 22.752694
RightHand 3.679374 -0.000000 13.049906
RightHandThumb1 -24.326973 -0.000000 -32.862282
LeftUpLeg 13.516765 2.707723 -16.381978
LeftLeg -1.762633 -0.000000 0.000000
LeftFoot -35.890724 21.378305 -14.995833
LeftToeBase 20.810767 -0.000000 -0.000000
RightUpLeg -17.756918 12.527828 23.279458
RightLeg -2.537638 -0.000000 0.000000
RightFoot -1.414275 -34.197830 -3.147636
RightToeBase 17.616320 -0.000000 -0.000000
439
root 18.593934 32.618375 -17.548589 -173.230940 4.070263 -175.055120
Spine -17.730048 1.685750 21.585160
Head 14.389031 7.653882 -11.218627
LeftShoulder -17.541884 -37.380335 24.425263
LeftArm 12.135848 9.083850 1.944757
LeftForeArm 20.718929 -0.000000 3.604530
LeftHand -8.970476 0.000000 -31.643573
LeftHandThumb1 -26.253704 0.000000 33.147579
RightShoulder -13.826801 -17.195369 3.985391
RightArm 6.956488 -6.554406 66.593453
RightForeArm -27.376840 -0.000000 22.666556
RightHand 3.706359 0.000000 13.021394
RightHandThumb1 -24.326973 -0.000000 -32.862282
LeftUpLeg 13.542044 2.687328 -16.352749
LeftLeg -1.763012 -0.000000 0.000000
LeftFoot -35.862290 21.346177 -14.998571
LeftToeBase 20.833757 -0.000000 -0.000000
RightUpLeg -17.758623 12.471653 23.279592
RightLeg -2.548643 -0.000000 0.000000
RightFoot -1.399056 -34.208074 -3.114911
RightToeBase 17.488815 -0.000000 -0.000000
440
root 18.585694 32.622936 -17.545478 -173.253760 3.979429 -175.040896
Spine -17.794904 1.508031 21.631397
Head 14.418524 7.779464 -11.219671
LeftShoulder -17.485214 -38.075921 25.380044
LeftArm 12.943838 8.496326 2.558702
LeftForeArm 21.005702 -0.000000 3.265504
LeftHand -9.076003 0.000000 -31.667190
LeftHandThumb1 -26.253704 0.000000 33.147579
RightShoulder -13.798316 -17.088536 4.019748
RightArm 6.827908 -6.443054 66.551779
RightForeArm -27.396124 -0.000000 22.640596
RightHand 3.632389 -0.000000 12.959401
RightHandThumb1 -24.326973 -0.000000 -32.862282
LeftUpLeg 13.562701 2.653722 -16.327572
LeftLeg -1.745100 -0.000000 0.000000
LeftFoot -35.816955 21.299688 -14.991681
LeftToeBase 20.711570 -0.000000 -0.000000
RightUpLeg -17.755078 12.397685 23.277336
RightLeg -2.576342 -0.000000 0.000000
RightFoot -1.412843 -34.237099 -3.022692
RightToeBase 17.514760 -0.000000 -0.000000
441
root 18.576681 32.626839 -17.541494 -173.267289 3.895536 -175.030203
Spine -17.870181 1.332263 21.688596
Head 14.467361 7.969814 -11.255479
LeftShoulder -17.438100 -38.820096 26.320832
LeftArm 13.735099 7.963198 3.138828
LeftForeArm 21.384002 -0.000000 2.964319
LeftHand -9.198190 -0.000000 -31.601512
LeftHandThumb1 -26.253704 0.000000 33.147579
RightShoulder -13.773613 -16.994132 4.041531
RightArm 6.706655 -6.277549 66.533543
RightForeArm -27.428256 -0.000000 22.646439
RightHand 3.546763 -0.000000 12.971543
RightHandThumb1 -24.326973 -0.000000 -32.862282
LeftUpLeg 13.576398 2.603367 -16.312424
LeftLeg -1.739128 -0.000000 0.000000
LeftFoot -35.776681 21.279014 -14.990277
LeftToeBase 20.739885 -0.000000 -0.000000
RightUpLeg -17.765254 12.334812 23.272980
RightLeg -2.591440 -0.000000 0.000000
RightFoot -1.380852 -34.225160 -3.034911
RightToeBase 17.423554 -0.000000 -0.000000
442
root 18.566532 32.630786 -17.538128 -173.272237 3.798474 -175.016568
Spine -17.955984 1.143193 21.758087
Head 14.506246 8.223750 -11.279345
LeftShoulder -17.420970 -39.441612 27.184745
LeftArm 14.596544 7.505473 3.737500
LeftForeArm 21.426484 -0.000000 2.731653
LeftHand -9.334007 -0.000000 -31.493624
LeftHandThumb1 -26.253704 0.000000 33.147579
RightShoulder -13.733098 -16.845194 4.045653
RightArm 6.522233 -6.136441 66.511300
RightForeArm -27.436025 -0.000000 22.632917
RightHand 3.511626 -0.000000 12.922450
RightHandThumb1 -24.326973 -0.000000 -32.862282
LeftUpLeg 13.582579 2.551769 -16.293173
LeftLeg -1.728467 -0.000000 0.000000
LeftFoot -35.752136 21.246146 -14.995551
LeftToeBase 20.779169 -0.000000 -0.000000
RightUpLeg -17.784813 12.249229 23.256002
RightLeg -2.614392 -0.000000 0.000000
RightFoot -1.453299 -34.120208 -2.895217
RightToeBase 17.437723 -0.000000 -0.000000
